<svg xmlns="http://www.w3.org/2000/svg" viewBox="0 0 720 398" width="720" height="398" font-family="Pretendard, 'Apple SD Gothic Neo', 'Malgun Gothic', 'Noto Sans KR', sans-serif" role="img" aria-label="종 안 상관계수의 안정성 점검: 부트스트랩, 연도, 측정 잡음, 결측 처리, 성별 분리">
<title>종 안 상관계수의 안정성 점검: 부트스트랩, 연도, 측정 잡음, 결측 처리, 성별 분리</title>
<rect width="720" height="398" fill="#ffffff"/>
<text x="20" y="26" font-size="16" fill="#0f172a" text-anchor="start" font-weight="600">부리 길이와 깊이의 종 안 상관계수는 어떤 변화에 흔들리는가</text><circle cx="330" cy="52" r="4" fill="#2a78d6" fill-opacity="1" stroke="#ffffff" stroke-width="0.6"/><text x="339" y="57" font-size="15" fill="#0f172a" text-anchor="start">Adelie</text><path d="M450 47L455 56L445 56Z" fill="#eb6834" fill-opacity="1" stroke="#ffffff" stroke-width="0.6"/><text x="459" y="57" font-size="15" fill="#0f172a" text-anchor="start">Chinstrap</text><rect x="566.2" y="48.2" width="7.6" height="7.6" fill="#1baf7a" fill-opacity="1" stroke="#ffffff" stroke-width="0.6"/><text x="579" y="57" font-size="15" fill="#0f172a" text-anchor="start">Gentoo</text><line x1="330" x2="330" y1="70" y2="348" stroke="#e2e8f0" stroke-width="1"/><text x="330" y="364" font-size="14" fill="#64748b" text-anchor="middle">-0.2</text><line x1="390" x2="390" y1="70" y2="348" stroke="#64748b" stroke-width="1"/><text x="390" y="364" font-size="14" fill="#64748b" text-anchor="middle">0.0</text><line x1="450" x2="450" y1="70" y2="348" stroke="#e2e8f0" stroke-width="1"/><text x="450" y="364" font-size="14" fill="#64748b" text-anchor="middle">0.2</text><line x1="510" x2="510" y1="70" y2="348" stroke="#e2e8f0" stroke-width="1"/><text x="510" y="364" font-size="14" fill="#64748b" text-anchor="middle">0.4</text><line x1="570" x2="570" y1="70" y2="348" stroke="#e2e8f0" stroke-width="1"/><text x="570" y="364" font-size="14" fill="#64748b" text-anchor="middle">0.6</text><line x1="630" x2="630" y1="70" y2="348" stroke="#e2e8f0" stroke-width="1"/><text x="630" y="364" font-size="14" fill="#64748b" text-anchor="middle">0.8</text><line x1="690" x2="690" y1="70" y2="348" stroke="#e2e8f0" stroke-width="1"/><text x="690" y="364" font-size="14" fill="#64748b" text-anchor="middle">1.0</text><text x="510" y="384" font-size="15" fill="#64748b" text-anchor="middle">상관계수 r</text><text x="318" y="97" font-size="15" fill="#0f172a" text-anchor="end">종별 전체 (선: 부트스트랩 95% 구간)</text><line x1="461.1" y1="86" x2="550.5" y2="86" stroke="#2a78d6" stroke-width="2" stroke-linecap="round"/><circle cx="507.3" cy="86" r="3.6" fill="#2a78d6" fill-opacity="1" stroke="#ffffff" stroke-width="0.6"/><line x1="531.9" y1="93" x2="624" y2="93" stroke="#eb6834" stroke-width="2" stroke-linecap="round"/><path d="M586.2 88.5L590.7 96.6L581.7 96.6Z" fill="#eb6834" fill-opacity="1" stroke="#ffffff" stroke-width="0.6"/><line x1="544.5" y1="100" x2="613.5" y2="100" stroke="#1baf7a" stroke-width="2" stroke-linecap="round"/><rect x="579.5" y="96.6" width="6.8" height="6.8" fill="#1baf7a" fill-opacity="1" stroke="#ffffff" stroke-width="0.6"/><text x="318" y="131" font-size="15" fill="#0f172a" text-anchor="end">2007년만</text><circle cx="490.5" cy="120" r="3.6" fill="#2a78d6" fill-opacity="1" stroke="#ffffff" stroke-width="0.6"/><path d="M547.8 122.5L552.3 130.6L543.3 130.6Z" fill="#eb6834" fill-opacity="1" stroke="#ffffff" stroke-width="0.6"/><rect x="604.4" y="130.6" width="6.8" height="6.8" fill="#1baf7a" fill-opacity="1" stroke="#ffffff" stroke-width="0.6"/><text x="318" y="165" font-size="15" fill="#0f172a" text-anchor="end">2008년만</text><circle cx="521.7" cy="154" r="3.6" fill="#2a78d6" fill-opacity="1" stroke="#ffffff" stroke-width="0.6"/><path d="M655.2 156.5L659.7 164.6L650.7 164.6Z" fill="#eb6834" fill-opacity="1" stroke="#ffffff" stroke-width="0.6"/><rect x="551.3" y="164.6" width="6.8" height="6.8" fill="#1baf7a" fill-opacity="1" stroke="#ffffff" stroke-width="0.6"/><text x="318" y="199" font-size="15" fill="#0f172a" text-anchor="end">2009년만</text><circle cx="523.2" cy="188" r="3.6" fill="#2a78d6" fill-opacity="1" stroke="#ffffff" stroke-width="0.6"/><path d="M562.5 190.5L567 198.6L558 198.6Z" fill="#eb6834" fill-opacity="1" stroke="#ffffff" stroke-width="0.6"/><rect x="577.7" y="198.6" width="6.8" height="6.8" fill="#1baf7a" fill-opacity="1" stroke="#ffffff" stroke-width="0.6"/><text x="318" y="233" font-size="15" fill="#0f172a" text-anchor="end">측정 잡음 SD 0.5 mm (평균)</text><line x1="477" y1="222" x2="514.2" y2="222" stroke="#2a78d6" stroke-width="2" stroke-linecap="round"/><circle cx="496.5" cy="222" r="3.6" fill="#2a78d6" fill-opacity="1" stroke="#ffffff" stroke-width="0.6"/><line x1="542.1" y1="229" x2="591.9" y2="229" stroke="#eb6834" stroke-width="2" stroke-linecap="round"/><path d="M568.2 224.5L572.7 232.6L563.7 232.6Z" fill="#eb6834" fill-opacity="1" stroke="#ffffff" stroke-width="0.6"/><line x1="537" y1="236" x2="580.5" y2="236" stroke="#1baf7a" stroke-width="2" stroke-linecap="round"/><rect x="556.4" y="232.6" width="6.8" height="6.8" fill="#1baf7a" fill-opacity="1" stroke="#ffffff" stroke-width="0.6"/><text x="318" y="267" font-size="15" fill="#0f172a" text-anchor="end">성별 결측 9마리 제외</text><circle cx="505.8" cy="256" r="3.6" fill="#2a78d6" fill-opacity="1" stroke="#ffffff" stroke-width="0.6"/><path d="M586.2 258.5L590.7 266.6L581.7 266.6Z" fill="#eb6834" fill-opacity="1" stroke="#ffffff" stroke-width="0.6"/><rect x="582.8" y="266.6" width="6.8" height="6.8" fill="#1baf7a" fill-opacity="1" stroke="#ffffff" stroke-width="0.6"/><text x="318" y="301" font-size="15" fill="#0f172a" text-anchor="end">암컷만</text><circle cx="438.3" cy="290" r="3.6" fill="#2a78d6" fill-opacity="1" stroke="#ffffff" stroke-width="0.6"/><path d="M466.8 292.5L471.3 300.6L462.3 300.6Z" fill="#eb6834" fill-opacity="1" stroke="#ffffff" stroke-width="0.6"/><rect x="515.6" y="300.6" width="6.8" height="6.8" fill="#1baf7a" fill-opacity="1" stroke="#ffffff" stroke-width="0.6"/><text x="318" y="335" font-size="15" fill="#0f172a" text-anchor="end">수컷만</text><circle cx="378.6" cy="324" r="3.6" fill="#2a78d6" fill-opacity="1" stroke="#ffffff" stroke-width="0.6"/><path d="M523.8 326.5L528.3 334.6L519.3 334.6Z" fill="#eb6834" fill-opacity="1" stroke="#ffffff" stroke-width="0.6"/><rect x="478.7" y="334.6" width="6.8" height="6.8" fill="#1baf7a" fill-opacity="1" stroke="#ffffff" stroke-width="0.6"/>
</svg>
