<svg xmlns="http://www.w3.org/2000/svg" viewBox="0 0 720 320" width="720" height="320" font-family="Pretendard, 'Apple SD Gothic Neo', 'Malgun Gothic', 'Noto Sans KR', sans-serif" role="img" aria-label="군집 수 K에 따른 평균 실루엣 점수와 종 라벨과의 ARI">
<title>군집 수 K에 따른 평균 실루엣 점수와 종 라벨과의 ARI</title>
<rect width="720" height="320" fill="#ffffff"/>
<line x1="70" x2="340" y1="246" y2="246" stroke="#e2e8f0" stroke-width="1"/><text x="64" y="250" font-size="14" fill="#64748b" text-anchor="end">0.3</text><line x1="70" x2="340" y1="179.3" y2="179.3" stroke="#e2e8f0" stroke-width="1"/><text x="64" y="183.3" font-size="14" fill="#64748b" text-anchor="end">0.4</text><line x1="70" x2="340" y1="112.7" y2="112.7" stroke="#e2e8f0" stroke-width="1"/><text x="64" y="116.7" font-size="14" fill="#64748b" text-anchor="end">0.5</text><line x1="70" x2="340" y1="46" y2="46" stroke="#e2e8f0" stroke-width="1"/><text x="64" y="50" font-size="14" fill="#64748b" text-anchor="end">0.6</text><line x1="87.6" x2="87.6" y1="246" y2="250" stroke="#64748b" stroke-width="1"/><text x="87.6" y="263" font-size="14" fill="#64748b" text-anchor="middle">2</text><line x1="146.3" x2="146.3" y1="246" y2="250" stroke="#64748b" stroke-width="1"/><text x="146.3" y="263" font-size="14" fill="#64748b" text-anchor="middle">3</text><line x1="205" x2="205" y1="246" y2="250" stroke="#64748b" stroke-width="1"/><text x="205" y="263" font-size="14" fill="#64748b" text-anchor="middle">4</text><line x1="263.7" x2="263.7" y1="246" y2="250" stroke="#64748b" stroke-width="1"/><text x="263.7" y="263" font-size="14" fill="#64748b" text-anchor="middle">5</text><line x1="322.4" x2="322.4" y1="246" y2="250" stroke="#64748b" stroke-width="1"/><text x="322.4" y="263" font-size="14" fill="#64748b" text-anchor="middle">6</text><line x1="70" x2="340" y1="246" y2="246" stroke="#64748b" stroke-width="1"/><text x="205" y="282" font-size="15" fill="#64748b" text-anchor="middle">군집 수 K</text><text x="70" y="34" font-size="16" fill="#0f172a" text-anchor="start" font-weight="600">(a) 평균 실루엣 점수</text><polyline points="87.6,91.3 146.3,148 205,179.3 263.7,194 322.4,200.7" fill="none" stroke="#2a78d6" stroke-width="2"/><circle cx="87.6" cy="91.3" r="4" fill="#2a78d6" fill-opacity="1" stroke="#ffffff" stroke-width="0.6"/><circle cx="146.3" cy="148" r="4" fill="#2a78d6" fill-opacity="1" stroke="#ffffff" stroke-width="0.6"/><circle cx="205" cy="179.3" r="4" fill="#2a78d6" fill-opacity="1" stroke="#ffffff" stroke-width="0.6"/><circle cx="263.7" cy="194" r="4" fill="#2a78d6" fill-opacity="1" stroke="#ffffff" stroke-width="0.6"/><circle cx="322.4" cy="200.7" r="4" fill="#2a78d6" fill-opacity="1" stroke="#ffffff" stroke-width="0.6"/><polyline points="87.6,91.3 146.3,143.3 205,167.3 263.7,204 322.4,222.7" fill="none" stroke="#eb6834" stroke-width="2"/><path d="M87.6 86.3L92.6 95.3L82.6 95.3Z" fill="#eb6834" fill-opacity="1" stroke="#ffffff" stroke-width="0.6"/><path d="M146.3 138.3L151.3 147.3L141.3 147.3Z" fill="#eb6834" fill-opacity="1" stroke="#ffffff" stroke-width="0.6"/><path d="M205 162.3L210 171.3L200 171.3Z" fill="#eb6834" fill-opacity="1" stroke="#ffffff" stroke-width="0.6"/><path d="M263.7 199L268.7 208L258.7 208Z" fill="#eb6834" fill-opacity="1" stroke="#ffffff" stroke-width="0.6"/><path d="M322.4 217.7L327.4 226.7L317.4 226.7Z" fill="#eb6834" fill-opacity="1" stroke="#ffffff" stroke-width="0.6"/><polyline points="87.6,92 146.3,146.7 205,181.3 263.7,198 322.4,207.3" fill="none" stroke="#64748b" stroke-width="1.5" stroke-dasharray="4 3"/><line x1="410" x2="680" y1="246" y2="246" stroke="#e2e8f0" stroke-width="1"/><text x="404" y="250" font-size="14" fill="#64748b" text-anchor="end">0.4</text><line x1="410" x2="680" y1="179.3" y2="179.3" stroke="#e2e8f0" stroke-width="1"/><text x="404" y="183.3" font-size="14" fill="#64748b" text-anchor="end">0.6</text><line x1="410" x2="680" y1="112.7" y2="112.7" stroke="#e2e8f0" stroke-width="1"/><text x="404" y="116.7" font-size="14" fill="#64748b" text-anchor="end">0.8</text><line x1="410" x2="680" y1="46" y2="46" stroke="#e2e8f0" stroke-width="1"/><text x="404" y="50" font-size="14" fill="#64748b" text-anchor="end">1</text><line x1="427.6" x2="427.6" y1="246" y2="250" stroke="#64748b" stroke-width="1"/><text x="427.6" y="263" font-size="14" fill="#64748b" text-anchor="middle">2</text><line x1="486.3" x2="486.3" y1="246" y2="250" stroke="#64748b" stroke-width="1"/><text x="486.3" y="263" font-size="14" fill="#64748b" text-anchor="middle">3</text><line x1="545" x2="545" y1="246" y2="250" stroke="#64748b" stroke-width="1"/><text x="545" y="263" font-size="14" fill="#64748b" text-anchor="middle">4</text><line x1="603.7" x2="603.7" y1="246" y2="250" stroke="#64748b" stroke-width="1"/><text x="603.7" y="263" font-size="14" fill="#64748b" text-anchor="middle">5</text><line x1="662.4" x2="662.4" y1="246" y2="250" stroke="#64748b" stroke-width="1"/><text x="662.4" y="263" font-size="14" fill="#64748b" text-anchor="middle">6</text><line x1="410" x2="680" y1="246" y2="246" stroke="#64748b" stroke-width="1"/><text x="545" y="282" font-size="15" fill="#64748b" text-anchor="middle">군집 수 K</text><text x="410" y="34" font-size="16" fill="#0f172a" text-anchor="start" font-weight="600">(b) 종 라벨과의 일치도 (ARI)</text><polyline points="427.6,161 486.3,115 545,167 603.7,187 662.4,201.3" fill="none" stroke="#2a78d6" stroke-width="2"/><circle cx="427.6" cy="161" r="4" fill="#2a78d6" fill-opacity="1" stroke="#ffffff" stroke-width="0.6"/><circle cx="486.3" cy="115" r="4" fill="#2a78d6" fill-opacity="1" stroke="#ffffff" stroke-width="0.6"/><circle cx="545" cy="167" r="4" fill="#2a78d6" fill-opacity="1" stroke="#ffffff" stroke-width="0.6"/><circle cx="603.7" cy="187" r="4" fill="#2a78d6" fill-opacity="1" stroke="#ffffff" stroke-width="0.6"/><circle cx="662.4" cy="201.3" r="4" fill="#2a78d6" fill-opacity="1" stroke="#ffffff" stroke-width="0.6"/><polyline points="427.6,161 486.3,74 545,135 603.7,189 662.4,208" fill="none" stroke="#eb6834" stroke-width="2"/><path d="M427.6 156L432.6 165L422.6 165Z" fill="#eb6834" fill-opacity="1" stroke="#ffffff" stroke-width="0.6"/><path d="M486.3 69L491.3 78L481.3 78Z" fill="#eb6834" fill-opacity="1" stroke="#ffffff" stroke-width="0.6"/><path d="M545 130L550 139L540 139Z" fill="#eb6834" fill-opacity="1" stroke="#ffffff" stroke-width="0.6"/><path d="M603.7 184L608.7 193L598.7 193Z" fill="#eb6834" fill-opacity="1" stroke="#ffffff" stroke-width="0.6"/><path d="M662.4 203L667.4 212L657.4 212Z" fill="#eb6834" fill-opacity="1" stroke="#ffffff" stroke-width="0.6"/><circle cx="70" cy="302" r="4" fill="#2a78d6" fill-opacity="1" stroke="#ffffff" stroke-width="0.6"/><text x="79" y="306" font-size="15" fill="#0f172a" text-anchor="start">K-means</text><path d="M220 297L225 306L215 306Z" fill="#eb6834" fill-opacity="1" stroke="#ffffff" stroke-width="0.6"/><text x="229" y="306" font-size="15" fill="#0f172a" text-anchor="start">Ward 계층적 군집</text><line x1="400" y1="302" x2="420" y2="302" stroke="#64748b" stroke-width="1.5" stroke-linecap="round" stroke-dasharray="4 3"/><text x="426" y="306" font-size="15" fill="#0f172a" text-anchor="start">K-means 5겹 교차검증 실루엣</text>
</svg>
